# xmcd
#
# Track frame offsets:
#	150
#	15600
#	28823
#	43908
#	60988
#	79016
#	92498
#	109618
#	122541
#	140492
#	156724
#	172620
#	173460
#	174562
#	175381
#	176309
#	177458
#	178419
#	179319
#	180200
#	181095
#	181951
#	182922
#	184067
#	185076
#	185999
#	186908
#	187840
#	188787
#	189715
#	190690
#	191926
#	192977
#	193890
#	194818
#	195779
#	196592
#	197582
#	198373
#	199180
#	200250
#	201173
#	201999
#	202835
#	203659
#	204480
#	205292
#	206404
#	207282
#	208106
#	208920
#	209777
#	210598
#	211571
#	212453
#	213538
#	214463
#	215298
#	216205
#
# Disc length: 2889 seconds
#
# Revision: 0
# Processed by: cddbd v1.5.2PL0 Copyright (c) Steve Scherf et al.
# Submitted via: audiograbber 1.83.01
#
DISCID=980b473b
DTITLE=Various Artist - CDX 624
DYEAR=2015
DGENRE=Country
TTITLE0=Toby Keith - Beautiful Stranger (Radio Edit)
TTITLE1=Brett Eldredge - Drunk On Your Love
TTITLE2=John Conlee - Walkin' Behind The Star
TTITLE3=Sarah Dunn Band - Backwoods Party
TTITLE4=Debbie Cochran - Before We Met The World
TTITLE5=Robby Johnson - Hate Me Tonight
TTITLE6=Conscious Rednecks - I'v Got Your Key
TTITLE7=Josh Christina - Kayla Ann
TTITLE8=Mike Aiken - Night Rider's Lament (Album Version)
TTITLE9=Ward Davis ft. Jamey Johnson and Willie Nelson - Old Wore Out Cowboys
TTITLE10=Dustin Bragg - One Way Ticket Home
TTITLE11=Ashley Gearing - Hometown Country (Liner)
TTITLE12=Ashley Gearing - Howlin' Country (Liner)
TTITLE13=Ashley Gearing - Kickin' Country (Liner)
TTITLE14=Ashley Gearing - More of the Country You Love (Liner)
TTITLE15=Ashley Gearing - My New Single (Liner)
TTITLE16=Ashley Gearing - Super Country (Liner)
TTITLE17=Ashley Gearing - The Best In Today's Country (Liner)
TTITLE18=Ashley Gearing - Today's Hot Country Music (Liner)
TTITLE19=Ricky Gunn - Hometown Country (Liner)
TTITLE20=Ricky Gunn - Kickin' Country (Liner)
TTITLE21=Ricky Gunn - More of the Country You Love (Liner)
TTITLE22=Ricky Gunn - My New Single (Liner)
TTITLE23=Ricky Gunn - Super Country (Liner)
TTITLE24=Ricky Gunn - The Best In Country Music (Liner)
TTITLE25=Ricky Gunn - Today's Best Country (Liner)
TTITLE26=Ricky Gunn - Today's Hot Country Music (Liner)
TTITLE27=Leslie Cours Mather - Hometown Country (Liner)
TTITLE28=Leslie Cours Mather - Kickin' Country (Liner)
TTITLE29=Leslie Cours Mather - More of the Country You Love (Liner)
TTITLE30=Leslie Cours Mather - My New Single (Liner)
TTITLE31=Leslie Cours Mather - Super Country (Liner)
TTITLE32=Leslie Cours Mather - The Best In Country Music (Liner)
TTITLE33=Leslie Cours Mather - Today's Best Country (Liner)
TTITLE34=Leslie Cours Mather - Today's Hot Country Music (Liner)
TTITLE35=Allie Louise - Hometown Country (Liner)
TTITLE36=Allie Louise - Howlin' Country (Liner)
TTITLE37=Allie Louise - Kickin' Country (Liner)
TTITLE38=Allie Louise - More of the Country You Love (Liner)
TTITLE39=Allie Louise - My New Single (Liner)
TTITLE40=Allie Louise - Super Country (Liner)
TTITLE41=Allie Louise - The Best In Country Music (Liner)
TTITLE42=Allie Louise - Today's Best Country (Liner)
TTITLE43=Shane Owens - Hometown Country (Liner)
TTITLE44=Shane Owens - Kickin' Country (Liner)
TTITLE45=Shane Owens - More of the Country You Love (Liner)
TTITLE46=Shane Owens - My New Single (Liner)
TTITLE47=Shane Owens - Super Country (Liner)
TTITLE48=Shane Owens - The Best In Country Music (Liner)
TTITLE49=Shane Owens - Today's Best Country (Liner)
TTITLE50=Shane Owens - Today's Hot Country Music (Liner)
TTITLE51=Jordyn Stoddard - Hometown Country (Liner)
TTITLE52=Jordyn Stoddard - Howlin' Country (Liner)
TTITLE53=Jordyn Stoddard - More of the Country You Love Next (Liner)
TTITLE54=Jordyn Stoddard - My New Single (Liner)
TTITLE55=Jordyn Stoddard - Super Country (Liner)
TTITLE56=Jordyn Stoddard - The Best In Country Music (Liner)
TTITLE57=Jordyn Stoddard - Today's Best Country (Liner)
TTITLE58=Jordyn Stoddard - Today's Hot Country Music (Liner)
EXTD=
EXTT0=
EXTT1=
EXTT2=
EXTT3=
EXTT4=
EXTT5=
EXTT6=
EXTT7=
EXTT8=
EXTT9=
EXTT10=
EXTT11=
EXTT12=
EXTT13=
EXTT14=
EXTT15=
EXTT16=
EXTT17=
EXTT18=
EXTT19=
EXTT20=
EXTT21=
EXTT22=
EXTT23=
EXTT24=
EXTT25=
EXTT26=
EXTT27=
EXTT28=
EXTT29=
EXTT30=
EXTT31=
EXTT32=
EXTT33=
EXTT34=
EXTT35=
EXTT36=
EXTT37=
EXTT38=
EXTT39=
EXTT40=
EXTT41=
EXTT42=
EXTT43=
EXTT44=
EXTT45=
EXTT46=
EXTT47=
EXTT48=
EXTT49=
EXTT50=
EXTT51=
EXTT52=
EXTT53=
EXTT54=
EXTT55=
EXTT56=
EXTT57=
EXTT58=
PLAYORDER=
